<svg width="352" height="336" viewBox="0 0 352 336" fill="none" xmlns="http://www.w3.org/2000/svg">
<path d="M351.224 62.513C338.024 68.2396 324.065 72.0252 309.78 73.7521C324.85 64.7489 336.144 50.5851 341.566 33.8882C327.403 42.3187 311.901 48.2585 295.731 51.4494C284.923 39.7286 270.53 31.9265 254.81 29.267C239.09 26.6074 222.932 29.2408 208.869 36.754C194.807 44.2672 183.636 56.2354 177.109 70.7814C170.582 85.3275 169.067 101.629 172.802 117.128C144.168 115.68 116.158 108.224 90.5922 95.2446C65.0269 82.2653 42.4779 64.053 24.4101 41.7907C18.0729 52.8573 14.743 65.3899 14.7514 78.1424C14.7289 89.9854 17.6353 101.65 23.2116 112.098C28.788 122.546 36.8613 131.453 46.7128 138.026C35.2625 137.715 24.0569 134.642 14.049 129.07V129.948C14.1348 146.541 19.9494 162.596 30.5094 175.396C41.0693 188.196 55.7262 196.955 72.001 200.193C65.7361 202.099 59.2318 203.105 52.6836 203.178C48.1509 203.125 43.6295 202.714 39.1615 201.949C43.7961 216.223 52.7648 228.697 64.8198 237.636C76.8747 246.575 91.4162 251.534 106.421 251.823C81.0837 271.76 49.8016 282.64 17.5612 282.731C11.6911 282.75 5.82568 282.398 0 281.677C32.9172 302.931 71.2777 314.213 110.46 314.165C137.499 314.446 164.323 309.336 189.365 299.134C214.407 288.932 237.165 273.843 256.309 254.747C275.454 235.651 290.602 212.932 300.869 187.916C311.135 162.9 316.313 136.09 316.102 109.05C316.102 106.065 316.102 102.904 316.102 99.7427C329.882 89.4661 341.767 76.8679 351.224 62.513V62.513Z" fill="white"/>
</svg>
